<mxfile host="app.diagrams.net" agent="Mozilla/5.0 (Windows NT 10.0; Win64; x64) AppleWebKit/537.36 (KHTML, like Gecko) Chrome/132.0.0.0 Safari/537.36" version="26.0.6">
  <diagram name="1 oldal" id="ih_HioFE11-8KtqgBiw_">
    <mxGraphModel dx="1551" dy="384" grid="1" gridSize="10" guides="1" tooltips="1" connect="1" arrows="1" fold="1" page="1" pageScale="1" pageWidth="827" pageHeight="1169" math="0" shadow="0">
      <root>
        <mxCell id="0" />
        <mxCell id="1" parent="0" />
        <mxCell id="5-vfJQSfanG8a6VxVlxj-1" value="&lt;p style=&quot;margin:0px;margin-top:4px;text-align:center;&quot;&gt;&lt;i&gt;&amp;lt;&amp;lt;Interface&amp;gt;&amp;gt;&lt;/i&gt;&lt;br&gt;&lt;b&gt;AdapterInterface&lt;/b&gt;&lt;/p&gt;&lt;hr size=&quot;1&quot; style=&quot;border-style:solid;&quot;&gt;&lt;p style=&quot;margin:0px;margin-left:4px;&quot;&gt;&amp;nbsp;&lt;/p&gt;&lt;p style=&quot;margin:0px;margin-left:4px;&quot;&gt;&lt;br&gt;&lt;/p&gt;&lt;hr size=&quot;1&quot; style=&quot;border-style:solid;&quot;&gt;&lt;p style=&quot;margin:0px;margin-left:4px;&quot;&gt;+ GetTime(Float): Float&lt;/p&gt;" style="verticalAlign=top;align=left;overflow=fill;html=1;whiteSpace=wrap;fillColor=#b1ddf0;strokeColor=#10739e;" vertex="1" parent="1">
          <mxGeometry x="260" y="80" width="190" height="110" as="geometry" />
        </mxCell>
        <mxCell id="5-vfJQSfanG8a6VxVlxj-6" style="edgeStyle=orthogonalEdgeStyle;rounded=0;orthogonalLoop=1;jettySize=auto;html=1;endSize=10;fillColor=#b1ddf0;strokeColor=#10739e;endArrow=diamondThin;endFill=0;strokeWidth=2;targetPerimeterSpacing=0;" edge="1" parent="1" target="5-vfJQSfanG8a6VxVlxj-3">
          <mxGeometry relative="1" as="geometry">
            <mxPoint x="260" y="132.5144827586207" as="sourcePoint" />
            <mxPoint x="170" y="137.48" as="targetPoint" />
          </mxGeometry>
        </mxCell>
        <mxCell id="5-vfJQSfanG8a6VxVlxj-2" value="MapApplication" style="swimlane;fontStyle=1;align=center;verticalAlign=top;childLayout=stackLayout;horizontal=1;startSize=26;horizontalStack=0;resizeParent=1;resizeParentMax=0;resizeLast=0;collapsible=1;marginBottom=0;whiteSpace=wrap;html=1;fillColor=#b1ddf0;strokeColor=#10739e;" vertex="1" parent="1">
          <mxGeometry x="-10" y="40" width="180" height="200" as="geometry" />
        </mxCell>
        <mxCell id="5-vfJQSfanG8a6VxVlxj-3" value="- startLoc: string&lt;div&gt;- endLoc: string&lt;/div&gt;&lt;div&gt;- kilometerDistance: Float&lt;/div&gt;&lt;div&gt;- adapter: AdapterInterface&lt;/div&gt;" style="text;strokeColor=none;fillColor=none;align=left;verticalAlign=top;spacingLeft=4;spacingRight=4;overflow=hidden;rotatable=0;points=[[0,0.5],[1,0.5]];portConstraint=eastwest;whiteSpace=wrap;html=1;" vertex="1" parent="5-vfJQSfanG8a6VxVlxj-2">
          <mxGeometry y="26" width="180" height="74" as="geometry" />
        </mxCell>
        <mxCell id="5-vfJQSfanG8a6VxVlxj-4" value="" style="line;strokeWidth=1;fillColor=none;align=left;verticalAlign=middle;spacingTop=-1;spacingLeft=3;spacingRight=3;rotatable=0;labelPosition=right;points=[];portConstraint=eastwest;strokeColor=inherit;" vertex="1" parent="5-vfJQSfanG8a6VxVlxj-2">
          <mxGeometry y="100" width="180" height="8" as="geometry" />
        </mxCell>
        <mxCell id="5-vfJQSfanG8a6VxVlxj-5" value="+ MapApplication(string, string, float, AdapterInterface)&lt;div&gt;+ GetStartLoc(): string&lt;/div&gt;&lt;div&gt;+ GetEndLoc(): string&lt;/div&gt;&lt;div&gt;+ GetRouteTime(): float&lt;/div&gt;&lt;div&gt;+ PrintInfo(): void&lt;/div&gt;" style="text;strokeColor=none;fillColor=none;align=left;verticalAlign=top;spacingLeft=4;spacingRight=4;overflow=hidden;rotatable=0;points=[[0,0.5],[1,0.5]];portConstraint=eastwest;whiteSpace=wrap;html=1;" vertex="1" parent="5-vfJQSfanG8a6VxVlxj-2">
          <mxGeometry y="108" width="180" height="92" as="geometry" />
        </mxCell>
        <mxCell id="5-vfJQSfanG8a6VxVlxj-8" style="edgeStyle=orthogonalEdgeStyle;rounded=0;orthogonalLoop=1;jettySize=auto;html=1;endSize=10;fillColor=#b1ddf0;strokeColor=#10739e;endArrow=block;endFill=0;strokeWidth=2;" edge="1" parent="1" source="5-vfJQSfanG8a6VxVlxj-9" target="5-vfJQSfanG8a6VxVlxj-1">
          <mxGeometry relative="1" as="geometry">
            <mxPoint x="270" y="142.5144827586207" as="sourcePoint" />
            <mxPoint x="180" y="113" as="targetPoint" />
          </mxGeometry>
        </mxCell>
        <mxCell id="5-vfJQSfanG8a6VxVlxj-9" value="KilometerToMilesAdatper" style="swimlane;fontStyle=1;align=center;verticalAlign=top;childLayout=stackLayout;horizontal=1;startSize=26;horizontalStack=0;resizeParent=1;resizeParentMax=0;resizeLast=0;collapsible=1;marginBottom=0;whiteSpace=wrap;html=1;fillColor=#b1ddf0;strokeColor=#10739e;" vertex="1" parent="1">
          <mxGeometry x="265" y="260" width="275" height="110" as="geometry" />
        </mxCell>
        <mxCell id="5-vfJQSfanG8a6VxVlxj-10" value="- routeTimeCalculator: RouteTimeCalculator" style="text;strokeColor=none;fillColor=none;align=left;verticalAlign=top;spacingLeft=4;spacingRight=4;overflow=hidden;rotatable=0;points=[[0,0.5],[1,0.5]];portConstraint=eastwest;whiteSpace=wrap;html=1;" vertex="1" parent="5-vfJQSfanG8a6VxVlxj-9">
          <mxGeometry y="26" width="275" height="44" as="geometry" />
        </mxCell>
        <mxCell id="5-vfJQSfanG8a6VxVlxj-11" value="" style="line;strokeWidth=1;fillColor=none;align=left;verticalAlign=middle;spacingTop=-1;spacingLeft=3;spacingRight=3;rotatable=0;labelPosition=right;points=[];portConstraint=eastwest;strokeColor=inherit;" vertex="1" parent="5-vfJQSfanG8a6VxVlxj-9">
          <mxGeometry y="70" width="275" height="8" as="geometry" />
        </mxCell>
        <mxCell id="5-vfJQSfanG8a6VxVlxj-12" value="+ KilometerToMilesAdapter(RouteTimeCalculator)&lt;div&gt;&lt;br&gt;&lt;/div&gt;" style="text;strokeColor=none;fillColor=none;align=left;verticalAlign=top;spacingLeft=4;spacingRight=4;overflow=hidden;rotatable=0;points=[[0,0.5],[1,0.5]];portConstraint=eastwest;whiteSpace=wrap;html=1;" vertex="1" parent="5-vfJQSfanG8a6VxVlxj-9">
          <mxGeometry y="78" width="275" height="32" as="geometry" />
        </mxCell>
        <mxCell id="5-vfJQSfanG8a6VxVlxj-13" value="RouteTimeCalculator" style="swimlane;fontStyle=1;align=center;verticalAlign=top;childLayout=stackLayout;horizontal=1;startSize=26;horizontalStack=0;resizeParent=1;resizeParentMax=0;resizeLast=0;collapsible=1;marginBottom=0;whiteSpace=wrap;html=1;fillColor=#b1ddf0;strokeColor=#10739e;" vertex="1" parent="1">
          <mxGeometry x="620" y="250" width="180" height="130" as="geometry" />
        </mxCell>
        <mxCell id="5-vfJQSfanG8a6VxVlxj-14" value="- miles: float" style="text;strokeColor=none;fillColor=none;align=left;verticalAlign=top;spacingLeft=4;spacingRight=4;overflow=hidden;rotatable=0;points=[[0,0.5],[1,0.5]];portConstraint=eastwest;whiteSpace=wrap;html=1;" vertex="1" parent="5-vfJQSfanG8a6VxVlxj-13">
          <mxGeometry y="26" width="180" height="34" as="geometry" />
        </mxCell>
        <mxCell id="5-vfJQSfanG8a6VxVlxj-15" value="" style="line;strokeWidth=1;fillColor=none;align=left;verticalAlign=middle;spacingTop=-1;spacingLeft=3;spacingRight=3;rotatable=0;labelPosition=right;points=[];portConstraint=eastwest;strokeColor=inherit;" vertex="1" parent="5-vfJQSfanG8a6VxVlxj-13">
          <mxGeometry y="60" width="180" height="8" as="geometry" />
        </mxCell>
        <mxCell id="5-vfJQSfanG8a6VxVlxj-16" value="&lt;div&gt;+ RouteTimeCalculator(float)&lt;/div&gt;&lt;div&gt;+ SetMiles(float): void&lt;/div&gt;&lt;div&gt;+ CalculateTime(): float&lt;/div&gt;" style="text;strokeColor=none;fillColor=none;align=left;verticalAlign=top;spacingLeft=4;spacingRight=4;overflow=hidden;rotatable=0;points=[[0,0.5],[1,0.5]];portConstraint=eastwest;whiteSpace=wrap;html=1;" vertex="1" parent="5-vfJQSfanG8a6VxVlxj-13">
          <mxGeometry y="68" width="180" height="62" as="geometry" />
        </mxCell>
        <mxCell id="5-vfJQSfanG8a6VxVlxj-17" style="edgeStyle=orthogonalEdgeStyle;rounded=0;orthogonalLoop=1;jettySize=auto;html=1;endSize=10;fillColor=#b1ddf0;strokeColor=#10739e;endArrow=diamondThin;endFill=0;strokeWidth=2;targetPerimeterSpacing=0;" edge="1" parent="1" source="5-vfJQSfanG8a6VxVlxj-13" target="5-vfJQSfanG8a6VxVlxj-9">
          <mxGeometry relative="1" as="geometry">
            <mxPoint x="270" y="142.5144827586207" as="sourcePoint" />
            <mxPoint x="180" y="113" as="targetPoint" />
          </mxGeometry>
        </mxCell>
      </root>
    </mxGraphModel>
  </diagram>
</mxfile>
